<?xml version="1.0" encoding="iso-8859-1"?>
<!-- Generator: Adobe Illustrator 19.0.0, SVG Export Plug-In . SVG Version: 6.00 Build 0)  -->
<svg version="1.1" id="Layer_1" xmlns="http://www.w3.org/2000/svg" xmlns:xlink="http://www.w3.org/1999/xlink" x="0px" y="0px"
	 viewBox="0 0 512 512" style="enable-background:new 0 0 512 512;" xml:space="preserve">
<path id="SVGCleanerId_0" style="fill:#FFE577;" d="M391.074,90.037C443.213,120.139,484.1,155.749,512,194.47L0.097,316.373
	l210.7-295.835C280.303,37.196,340.897,61.067,391.074,90.037z"/>
<g>
	<path id="SVGCleanerId_0_1_" style="fill:#FFE577;" d="M391.074,90.037C443.213,120.139,484.1,155.749,512,194.47L0.097,316.373
		l210.7-295.835C280.303,37.196,340.897,61.067,391.074,90.037z"/>
</g>
<g>
	<polygon style="fill:#FEDA44;" points="512,194.47 511.904,368.513 0,491.461 0.097,316.373 	"/>
	<polygon style="fill:#FEDA44;" points="511.904,194.381 0.097,316.373 0.08,491.461 511.904,368.532 511.921,194.489 
		511.809,194.516 	"/>
	<path style="fill:#FEDA44;" d="M219.117,64.957c-9.463,5.31-9.678,14.072-0.48,19.571c9.198,5.499,24.326,5.652,33.789,0.342
		s9.678-14.072,0.48-19.571C243.708,59.799,228.58,59.647,219.117,64.957"/>
	<path style="fill:#FEDA44;" d="M197.505,108.823c-14.507,8.14-14.836,21.572-0.736,30.002c14.101,8.429,37.292,8.663,51.798,0.524
		s14.836-21.572,0.736-30.002C235.204,100.918,212.012,100.684,197.505,108.823"/>
	<path style="fill:#FEDA44;" d="M363.138,162.354c-10.358,5.812-10.593,15.403-0.525,21.422c10.069,6.019,26.626,6.186,36.985,0.374
		c10.358-5.812,10.593-15.403,0.525-21.422C390.054,156.71,373.496,156.542,363.138,162.354"/>
	<path style="fill:#FEDA44;" d="M93.324,239.998c-10.896,6.114-11.143,16.203-0.552,22.535c10.591,6.331,28.01,6.508,38.906,0.393
		c10.896-6.115,11.143-16.203,0.552-22.535C121.639,234.059,104.221,233.883,93.324,239.998"/>
	<path style="fill:#FEDA44;" d="M420.966,165.621c-7.254,4.07-7.418,10.787-0.368,15.001c7.05,4.214,18.645,4.332,25.899,0.261
		c7.254-4.07,7.418-10.787,0.368-15.001C439.815,161.668,428.22,161.551,420.966,165.621"/>
</g>
<path style="fill:#FED322;" d="M335.882,236.409c-0.008-0.017-0.019-0.033-0.027-0.05c0.002-0.006,0.005-0.013,0.007-0.019
	l-0.016,0.003c-1.494-3.028-4.248-5.895-8.279-8.318c-13.074-7.857-34.576-8.075-48.026-0.488
	c-11.205,6.321-13.276,16.061-6.101,23.681l-0.258,0.062c-0.106,1.322-0.159,2.631-0.156,3.923
	c0.06,21.075,14.981,29.577,33.321,18.988c12.874-7.432,24.002-22.289,29.483-37.77L335.882,236.409z"/>
<g>
	<path style="fill:#FECE00;" d="M144.564,329.773c-11.185,6.458-20.225,22.117-20.189,34.976c0.037,12.852,9.136,18.037,20.32,11.58
		c11.191-6.462,20.232-22.12,20.195-34.972C164.855,328.498,155.755,323.313,144.564,329.773z"/>
	<path style="fill:#FECE00;" d="M206.578,367.433c-8.555,4.939-15.469,16.915-15.441,26.75c0.028,9.83,6.987,13.796,15.542,8.857
		c8.559-4.941,15.473-16.918,15.446-26.748C222.096,366.457,215.137,362.492,206.578,367.433z"/>
	<path style="fill:#FECE00;" d="M464.334,286.349c-6.807,3.93-12.309,13.46-12.287,21.286c0.022,7.822,5.56,10.978,12.367,7.048
		c6.811-3.932,12.313-13.462,12.29-21.284C476.683,285.573,471.145,282.417,464.334,286.349z"/>
	<path style="fill:#FECE00;" d="M0.083,469.85c1.393-0.542,2.82-1.225,4.276-2.066c14.568-8.411,26.337-28.795,26.289-45.525
		c-0.047-16.741-11.893-23.491-26.461-15.079c-1.395,0.806-2.763,1.722-4.098,2.733L0.083,469.85z"/>
	<path style="fill:#FECE00;" d="M421.753,254.373c-11.712,6.762-21.179,23.159-21.141,36.625
		c0.039,13.458,9.567,18.889,21.28,12.126c11.72-6.766,21.186-23.164,21.148-36.622
		C443.001,253.036,433.473,247.606,421.753,254.373z"/>
</g>
<g>
</g>
<g>
</g>
<g>
</g>
<g>
</g>
<g>
</g>
<g>
</g>
<g>
</g>
<g>
</g>
<g>
</g>
<g>
</g>
<g>
</g>
<g>
</g>
<g>
</g>
<g>
</g>
<g>
</g>
</svg>
